<?xml version="1.0" encoding="UTF-8" standalone="no"?>
<!DOCTYPE svg PUBLIC "-//W3C//DTD SVG 1.1//EN" "http://www.w3.org/Graphics/SVG/1.1/DTD/svg11.dtd">
<svg width="100%" height="100%" viewBox="0 0 3557 1023" version="1.1" xmlns="http://www.w3.org/2000/svg" xmlns:xlink="http://www.w3.org/1999/xlink" xml:space="preserve" xmlns:serif="http://www.serif.com/" style="fill-rule:evenodd;clip-rule:evenodd;stroke-linejoin:round;stroke-miterlimit:2;">
    <g transform="matrix(1,0,0,0.40513,0.700715,0.249514)">
        <rect x="0" y="0" width="3556.473" height="2524.655"/>
    </g>
    <g id="Tavola-da-disegno2" serif:id="Tavola da disegno2" transform="matrix(1,0,0,1,1256.299285,-441.249514)">
        <rect x="-1256.299" y="441.25" width="3556.473" height="1022.813" style="fill:none;"/>
        <g transform="matrix(2.836262,0,0,2.836262,-3613.610534,73.627653)">
            <g transform="matrix(4.166667,0,0,4.166667,960.311667,234.1575)">
                <path d="M0,15.888C-8.569,13.973 -16.643,12.185 -16.643,3.798C-16.643,-3.487 -10.377,-8.137 -1.202,-8.137C7.732,-8.137 13.904,-3.1 13.904,4.9L18.236,4.9C18.236,-5.554 10.7,-12.349 -1.122,-12.349C-13.185,-12.349 -21.014,-6.021 -21.014,3.959C-21.014,15.494 -10.835,17.823 -1.418,19.939C5.649,21.533 12.32,23.012 14.577,28.237L19.371,28.237C17.196,19.848 8.338,17.803 0,15.888" style="fill:white;fill-rule:nonzero;"/>
            </g>
            <g transform="matrix(4.166667,0,0,4.166667,1160.388333,326.208333)">
                <path d="M0,-27.564L14.425,6.144L19.075,6.144L1.904,-33.708L-2.04,-33.708L-18.755,6.144L-14.085,6.144L0,-27.564Z" style="fill:white;fill-rule:nonzero;"/>
            </g>
            <g transform="matrix(4.166667,0,0,4.166667,1323.095417,222.15875)">
                <path d="M0,22.381L19.778,22.381C25.598,22.381 30.395,26.01 32.031,31.116L36.572,31.116C35.216,25.944 31.474,21.814 26.519,20.158L26.518,20.158C31.762,17.879 35.378,12.274 35.378,6.231C35.378,-2.193 28.696,-8.735 18.997,-8.735L-4.331,-8.735L-4.331,31.116L0,31.116L0,22.381ZM0,-4.442L19.344,-4.442C25.816,-4.442 30.927,0.455 30.927,6.753C30.927,12.825 26.043,18.089 19.67,18.089L0,18.089L0,-4.442Z" style="fill:white;fill-rule:nonzero;"/>
            </g>
            <g transform="matrix(-4.166667,0,0,4.166667,2839.63,-3015.978333)">
                <rect x="312.387" y="768.418" width="4.372" height="39.851" style="fill:white;"/>
            </g>
            <g transform="matrix(4.166667,0,0,4.166667,1612.88375,319.685)">
                <path d="M0,-24.433L23.484,7.709L28.746,7.709L-0.327,-32.142L-4.292,-32.142L-4.292,7.709L0,7.709L0,-24.433Z" style="fill:white;fill-rule:nonzero;"/>
            </g>
            <g transform="matrix(-4.166667,0,0,4.166667,3343.605,-3015.978333)">
                <rect x="372.904" y="768.418" width="4.292" height="39.851" style="fill:white;"/>
            </g>
            <g transform="matrix(4.166667,0,0,4.166667,2048.897083,373.869583)">
                <path d="M0,15.594L-7.035,-0.735L-11.727,-0.735L-4.741,15.594L0,15.594ZM-50.931,15.594L-44.055,-0.735L-48.742,-0.735L-55.591,15.594L-50.931,15.594ZM-65.898,15.594L-62.175,15.594L-62.175,-0.735L-66.466,-0.735L-66.466,7.632L-72.57,-0.735L-77.828,-0.735L-65.898,15.594ZM-108.935,15.594L-104.643,15.594L-104.643,-0.735L-108.935,-0.735L-108.935,15.594ZM-126.983,15.594L-122.611,15.594L-122.611,-0.735L-126.983,-0.735L-126.983,15.594ZM-137.071,-0.735L-141.574,-0.735C-141.917,6.118 -147.481,11.263 -154.648,11.263L-174.192,11.263L-174.192,-0.735L-178.524,-0.735L-178.524,15.594L-155.034,15.594C-144.524,15.594 -137.193,8.38 -137.071,-0.735M-189.907,15.594L-185.167,15.594L-192.203,-0.735L-196.894,-0.735L-189.907,15.594ZM-236.098,15.594L-229.222,-0.735L-233.91,-0.735L-240.758,15.594L-236.098,15.594ZM-241.39,-0.735L-245.883,-0.735C-246.045,6.945 -252.728,12.036 -261.909,12.036C-271.418,12.036 -278.108,7.138 -278.988,-0.735L-283.465,-0.735C-282.596,9.689 -274.157,16.329 -261.869,16.329C-250.169,16.329 -241.566,9.768 -241.39,-0.735" style="fill:white;fill-rule:nonzero;"/>
            </g>
            <g transform="matrix(4.166667,0,0,4.166667,1931.91875,326.208333)">
                <path d="M0,-27.564L14.425,6.144L19.074,6.144L1.904,-33.708L-2.04,-33.708L-18.755,6.144L-14.085,6.144L0,-27.564Z" style="fill:white;fill-rule:nonzero;"/>
            </g>
        </g>
    </g>
</svg>
