<?xml version="1.0" standalone="no"?>
<!DOCTYPE svg PUBLIC "-//W3C//DTD SVG 20010904//EN"
 "http://www.w3.org/TR/2001/REC-SVG-20010904/DTD/svg10.dtd">
<svg version="1.0" xmlns="http://www.w3.org/2000/svg"
 width="3557.000000pt" height="1023.000000pt" viewBox="0 0 3557.000000 1023.000000"
 preserveAspectRatio="xMidYMid meet">

<g transform="translate(0.000000,1023.000000) scale(0.100000,-0.100000)"
fill="#000000" stroke="none">
<path d="M10 5115 l0 -5115 17780 0 17780 0 0 5115 0 5115 -17780 0 -17780 0
0 -5115z m3868 3590 c464 -53 843 -185 1149 -402 394 -279 650 -678 747 -1163
25 -123 46 -310 46 -402 l0 -48 -254 0 -253 0 -7 38 c-3 20 -6 60 -6 87 -1
113 -45 311 -101 453 -88 222 -245 430 -433 576 -360 278 -827 403 -1403 375
-378 -19 -713 -108 -981 -260 -444 -254 -682 -653 -682 -1144 0 -479 214 -806
680 -1040 271 -136 524 -213 1246 -380 789 -182 1125 -286 1445 -448 223 -113
376 -223 524 -378 112 -117 176 -206 240 -334 47 -93 115 -270 115 -297 0 -4
-128 -8 -283 -8 l-284 0 -19 42 c-77 172 -243 345 -456 475 -296 180 -572 267
-1613 508 -731 169 -1102 304 -1422 515 -251 165 -412 340 -531 575 -223 446
-214 1097 22 1580 299 610 918 984 1787 1079 177 19 558 20 727 1z m5696 -92
c11 -23 1997 -4628 2013 -4670 4 -10 -54 -13 -269 -13 l-275 0 -849 1985
c-467 1092 -851 1985 -854 1985 -3 0 -378 -893 -834 -1985 l-829 -1985 -274 0
c-150 0 -273 3 -273 7 0 4 1606 3837 1957 4671 l13 32 230 0 229 0 15 -27z
m6945 4 c252 -41 444 -99 636 -192 300 -145 542 -358 719 -633 226 -354 312
-822 230 -1260 -51 -273 -186 -573 -357 -792 -154 -196 -338 -351 -557 -468
-87 -47 -92 -52 -70 -60 228 -89 383 -178 549 -317 275 -230 473 -532 587
-893 l23 -72 -271 2 -271 3 -18 52 c-24 71 -93 211 -141 285 -185 286 -480
509 -808 612 -237 74 -144 69 -1547 73 l-1263 4 0 -516 0 -515 -260 0 -260 0
0 2348 c0 1292 3 2352 7 2356 4 4 674 5 1488 3 1325 -3 1491 -5 1584 -20z
m3531 -2332 l0 -2355 -255 0 -255 0 0 2355 0 2355 255 0 255 0 0 -2355z m3803
0 l1715 -2350 -302 -3 c-165 -1 -306 0 -312 2 -6 2 -631 854 -1390 1892
l-1379 1888 -3 -1892 -2 -1892 -255 0 -255 0 0 2355 0 2355 234 -2 235 -3
1714 -2350z m3345 -2 l2 -2353 -255 0 -255 0 0 2355 0 2355 253 -2 252 -3 3
-2352z m5266 2 l1013 -2350 -270 -3 c-149 -1 -274 1 -278 5 -4 5 -389 901
-855 1991 -467 1091 -850 1980 -851 1975 -2 -4 -376 -899 -831 -1988 l-828
-1980 -277 -3 c-265 -2 -276 -2 -269 16 4 10 448 1070 987 2355 l980 2337 233
-2 234 -3 1012 -2350z m-30884 -2967 c75 -463 309 -829 690 -1083 347 -231
802 -354 1310 -355 622 0 1136 186 1491 540 240 239 376 537 404 883 l7 87
264 0 264 0 0 -57 c0 -32 -5 -98 -10 -148 -114 -995 -893 -1674 -2060 -1796
-156 -16 -557 -16 -710 0 -1229 130 -2025 816 -2175 1876 -8 55 -15 106 -15
113 0 9 59 12 264 12 l264 0 12 -72z m5870 69 c0 -1 -182 -434 -404 -962
l-404 -960 -277 -3 c-221 -2 -276 0 -272 10 96 232 799 1904 803 1910 4 7 554
13 554 5z m4638 -604 c143 -335 331 -769 415 -965 l154 -358 -281 0 -281 1
-403 944 c-222 519 -406 953 -409 965 -5 20 -2 20 269 20 l274 0 262 -607z
m1870 -105 l2 -708 1198 0 c1250 1 1328 3 1492 45 126 31 246 76 353 130 455
230 754 668 802 1178 l7 67 264 0 264 0 0 -62 c0 -87 -35 -310 -65 -421 -127
-457 -395 -826 -793 -1088 -205 -136 -473 -247 -727 -302 -264 -57 -251 -57
-1848 -57 l-1467 0 0 965 0 965 258 -2 257 -3 3 -707z m6092 -253 l0 -965
-255 0 -255 0 0 965 0 965 255 0 255 0 0 -965z m2128 -2 l2 -963 -255 0 -255
0 0 965 0 965 253 -2 252 -3 3 -962z m4141 482 c195 -267 358 -488 363 -491 4
-3 8 216 8 486 l0 490 253 -2 252 -3 3 -962 2 -963 -223 0 -223 0 -700 957
c-384 526 -700 960 -702 965 -2 4 135 8 305 8 l308 0 354 -485z m3009 468 c-3
-10 -184 -444 -404 -965 l-399 -948 -272 0 c-150 0 -273 3 -273 7 0 4 181 438
402 965 l402 958 274 0 c256 0 274 -1 270 -17z m4799 -947 c227 -527 413 -960
413 -962 0 -2 -125 -4 -278 -4 l-279 0 -407 951 c-224 522 -410 957 -413 965
-4 12 33 14 273 12 l278 -3 413 -959z"/>
<path d="M13960 6800 l0 -1330 1258 3 c1392 3 1289 -2 1497 69 378 128 692
446 819 829 87 260 98 510 36 760 -108 429 -437 778 -871 923 -218 73 -137 69
-1506 73 l-1233 4 0 -1331z"/>
</g>
</svg>
